<svg width="200" height="40" viewBox="0 0 200 40" fill="none" xmlns="http://www.w3.org/2000/svg">
<g clip-path="url(#clip0_1_3)">
<path fill-rule="evenodd" clip-rule="evenodd" d="M53.28 31.662C51.613 31.6676 49.9537 31.436 48.352 30.974C46.772 30.516 45.462 29.882 44.416 29.07L46.016 25.518C48.192 27.034 50.636 27.79 53.344 27.79C54.752 27.79 55.834 27.562 56.592 27.102C57.35 26.644 57.728 26.01 57.728 25.198C57.728 24.474 57.382 23.908 56.688 23.502C55.994 23.098 54.762 22.702 52.992 22.318C51.008 21.914 49.424 21.422 48.24 20.846C47.056 20.27 46.192 19.562 45.648 18.718C45.104 17.878 44.832 16.838 44.832 15.598C44.832 14.234 45.212 13.018 45.968 11.95C46.726 10.884 47.788 10.046 49.152 9.438C50.518 8.83 52.096 8.526 53.888 8.526C55.488 8.526 57.028 8.762 58.512 9.23C59.994 9.7 61.172 10.33 62.048 11.118L60.448 14.67C58.378 13.156 56.202 12.4 53.92 12.4C52.62 12.4 51.594 12.652 50.848 13.152C50.102 13.654 49.728 14.342 49.728 15.216C49.728 15.728 49.872 16.15 50.16 16.48C50.448 16.812 50.928 17.104 51.6 17.36C52.272 17.616 53.226 17.884 54.464 18.16C57.364 18.8 59.45 19.622 60.72 20.624C61.99 21.628 62.624 23.014 62.624 24.784C62.624 26.918 61.804 28.598 60.16 29.824C58.518 31.052 56.224 31.662 53.28 31.662ZM74.208 28.078C74.698 28.078 75.212 28.046 75.744 27.982L75.488 31.502C74.873 31.5871 74.2529 31.6299 73.632 31.63C71.242 31.63 69.498 31.108 68.4 30.062C67.3 29.018 66.752 27.428 66.752 25.294V19.28H63.776V15.662H66.752V11.054H71.584V15.662H75.52V19.28H71.584V25.264C71.584 27.142 72.46 28.08 74.208 28.08V28.078ZM85.44 31.63C83.776 31.63 82.314 31.294 81.056 30.622C79.8269 29.979 78.8142 28.9885 78.144 27.774C77.462 26.548 77.12 25.102 77.12 23.438C77.12 21.774 77.46 20.33 78.144 19.102C78.8119 17.8897 79.8256 16.9038 81.056 16.27C82.316 15.61 83.776 15.278 85.44 15.278C87.104 15.278 88.566 15.61 89.824 16.27C91.084 16.932 92.054 17.876 92.736 19.102C93.418 20.33 93.76 21.774 93.76 23.438C93.76 25.102 93.42 26.548 92.736 27.774C92.0658 28.9885 91.0531 29.979 89.824 30.622C88.564 31.294 87.104 31.63 85.44 31.63ZM85.44 27.95C87.786 27.95 88.96 26.446 88.96 23.438C88.96 21.924 88.656 20.794 88.048 20.046C87.44 19.3 86.57 18.926 85.44 18.926C83.094 18.926 81.92 20.43 81.92 23.438C81.92 26.446 83.094 27.95 85.44 27.95ZM107.136 19.248L104.416 19.536C103.072 19.664 102.124 20.042 101.568 20.67C101.014 21.3 100.736 22.138 100.736 23.182V31.376H95.904V15.664H100.544V18.32C101.334 16.506 102.964 15.514 105.44 15.344L106.848 15.248L107.136 19.248ZM121.176 15.694H125.912L116.44 37.134H111.544L114.552 30.51L108.088 15.694H113.112L117.08 25.678L121.176 15.694ZM137.112 15.278C138.478 15.278 139.682 15.61 140.728 16.27C141.774 16.932 142.588 17.876 143.176 19.102C143.762 20.33 144.056 21.754 144.056 23.374C144.056 24.996 143.762 26.432 143.176 27.678C142.59 28.926 141.768 29.898 140.712 30.592C139.642 31.2893 138.389 31.6514 137.112 31.632C136.089 31.6468 135.078 31.4098 134.168 30.942C133.327 30.5152 132.627 29.8548 132.152 29.04V31.376H127.384V8.816H132.216V17.776C132.69 16.9819 133.385 16.3427 134.216 15.936C135.115 15.4898 136.108 15.2642 137.112 15.278ZM135.704 27.952C136.836 27.952 137.71 27.552 138.328 26.752C138.948 25.952 139.256 24.826 139.256 23.376C139.256 21.946 138.948 20.852 138.328 20.096C137.708 19.336 136.836 18.958 135.704 18.958C134.574 18.958 133.7 19.348 133.08 20.128C132.46 20.906 132.152 22.008 132.152 23.438C132.152 24.89 132.462 26.004 133.08 26.784C133.7 27.562 134.574 27.952 135.704 27.952ZM154.552 31.632C152.888 31.632 151.426 31.294 150.168 30.622C148.939 29.9789 147.926 28.9884 147.256 27.774C146.574 26.548 146.232 25.102 146.232 23.438C146.232 21.774 146.572 20.33 147.256 19.102C147.924 17.8897 148.938 16.9038 150.168 16.27C151.428 15.61 152.888 15.278 154.552 15.278C156.216 15.278 157.678 15.61 158.936 16.27C160.196 16.932 161.166 17.876 161.848 19.102C162.53 20.33 162.872 21.774 162.872 23.438C162.872 25.102 162.532 26.548 161.848 27.774C161.178 28.9884 160.165 29.9789 158.936 30.622C157.676 31.294 156.216 31.632 154.552 31.632ZM154.552 27.952C156.9 27.952 158.072 26.446 158.072 23.438C158.072 21.924 157.768 20.794 157.16 20.046C156.552 19.3 155.682 18.926 154.552 18.926C152.206 18.926 151.032 20.43 151.032 23.438C151.032 26.446 152.206 27.952 154.552 27.952ZM172.568 31.632C170.904 31.632 169.442 31.294 168.184 30.622C166.955 29.979 165.942 28.9885 165.272 27.774C164.59 26.548 164.248 25.102 164.248 23.438C164.248 21.774 164.588 20.33 165.272 19.102C165.94 17.8897 166.954 16.9038 168.184 16.27C169.444 15.61 170.904 15.278 172.568 15.278C174.232 15.278 175.694 15.61 176.952 16.27C178.212 16.932 179.182 17.876 179.864 19.102C180.546 20.33 180.888 21.774 180.888 23.438C180.888 25.102 180.548 26.548 179.864 27.774C179.194 28.9885 178.181 29.979 176.952 30.622C175.692 31.294 174.232 31.632 172.568 31.632ZM172.568 27.952C174.914 27.952 176.088 26.446 176.088 23.438C176.088 21.924 175.784 20.794 175.176 20.046C174.568 19.3 173.698 18.926 172.568 18.926C170.222 18.926 169.048 20.43 169.048 23.438C169.048 26.446 170.222 27.952 172.568 27.952ZM200 31.372H194.08L188.064 24.366V31.374H183.232V8.816H188.064V22.382L193.856 15.694H199.616L193.024 23.182L200 31.378V31.372Z" fill="black"/>
<path d="M1.24 36.86L-8.17934e-07 3.84C-0.018714 3.31555 0.168217 2.80455 0.520923 2.41598C0.87363 2.0274 1.3642 1.79201 1.888 1.76L29.968 0.00399987C30.2424 -0.0135072 30.5174 0.0254524 30.7761 0.11847C31.0348 0.211487 31.2717 0.356585 31.472 0.54479C31.6724 0.732996 31.8321 0.960309 31.9411 1.21267C32.0502 1.46504 32.1063 1.73709 32.106 2.012V37.99C32.1057 38.2616 32.0505 38.5304 31.9435 38.7801C31.8366 39.0298 31.6802 39.2552 31.4838 39.4429C31.2874 39.6305 31.055 39.7764 30.8007 39.8718C30.5464 39.9672 30.2754 40.0102 30.004 39.998L3.16 38.792C2.6557 38.7693 2.17836 38.5578 1.82271 38.1996C1.46705 37.8413 1.25906 37.3645 1.24 36.86Z" fill="#FF4785"/>
<path fill-rule="evenodd" clip-rule="evenodd" d="M27.76 0.142L23.896 0.382L23.708 4.916C23.7057 4.97273 23.7195 5.02895 23.7479 5.07812C23.7763 5.1273 23.818 5.16741 23.8683 5.19381C23.9186 5.2202 23.9753 5.23178 24.0319 5.22721C24.0885 5.22265 24.1426 5.20211 24.188 5.168L25.948 3.832L27.436 5.004C27.4809 5.03956 27.5351 5.06151 27.5921 5.06726C27.6491 5.07301 27.7066 5.06231 27.7577 5.03644C27.8088 5.01056 27.8514 4.97059 27.8806 4.92125C27.9097 4.87191 27.9241 4.81526 27.922 4.758L27.76 0.142ZM24.752 15.322C24.046 15.872 18.774 16.246 18.774 15.464C18.886 12.478 17.55 12.348 16.806 12.348C16.102 12.348 14.914 12.56 14.914 14.16C14.914 15.79 16.65 16.71 18.688 17.79C21.582 19.324 25.088 21.182 25.088 25.854C25.088 30.334 21.448 32.806 16.808 32.806C12.018 32.806 7.832 30.868 8.304 24.15C8.49 23.362 14.58 23.55 14.58 24.15C14.504 26.922 15.136 27.738 16.732 27.738C17.958 27.738 18.514 27.062 18.514 25.926C18.514 24.204 16.706 23.188 14.624 22.02C11.806 20.438 8.49 18.576 8.49 14.302C8.49 10.038 11.422 7.194 16.658 7.194C21.894 7.194 24.752 9.994 24.752 15.322Z" fill="white"/>
</g>
<defs>
<clipPath id="clip0_1_3">
<rect width="200" height="40" fill="white"/>
</clipPath>
</defs>
</svg>
